REM DIRINDEX 1\2\6,1\2\7,1\2\8,1\2\9,1\3\10,1\3\11,1\4\12,1\4\13,1\4\14,1\5\15,1\5\16,1\5\17
REM DIRNAME cjc020,folder01,folder02,folder03,folder04,folder05,folder06,folder07,folder08,folder09,folder10,folder11,folder12,folder13,folder14,folder15,folder16
TITLE ""
FILE "1900_2_sec06_0501_0515.mp3" MP3
  TRACK 01 AUDIO
    TITLE "0:"
    INDEX 01 00:00:00
  TRACK 02 AUDIO
    TITLE "12:cjc020_3107"
    INDEX 01 00:03:21
  TRACK 03 AUDIO
    TITLE "0:"
    INDEX 01 00:05:05
  TRACK 04 AUDIO
    TITLE "12:cjc020_3108"
    INDEX 01 00:05:48
  TRACK 05 AUDIO
    TITLE "0:"
    INDEX 01 00:06:71
  TRACK 06 AUDIO
    TITLE "13:cjc020_3109"
    INDEX 01 00:07:72
  TRACK 07 AUDIO
    TITLE "0:"
    INDEX 01 00:09:32
  TRACK 08 AUDIO
    TITLE "14:cjc020_3110"
    INDEX 01 00:09:38
  TRACK 09 AUDIO
    TITLE "0:"
    INDEX 01 00:10:70
  TRACK 10 AUDIO
    TITLE "13:cjc020_3111"
    INDEX 01 00:11:48
  TRACK 11 AUDIO
    TITLE "0:"
    INDEX 01 00:13:12
  TRACK 12 AUDIO
    TITLE "14:cjc020_3112"
    INDEX 01 00:13:14
  TRACK 13 AUDIO
    TITLE "0:"
    INDEX 01 00:15:54
  TRACK 14 AUDIO
    TITLE "13:cjc020_3113"
    INDEX 01 00:16:32
  TRACK 15 AUDIO
    TITLE "0:"
    INDEX 01 00:17:45
  TRACK 16 AUDIO
    TITLE "14:cjc020_3114"
    INDEX 01 00:17:49
  TRACK 17 AUDIO
    TITLE "0:"
    INDEX 01 00:21:62
  TRACK 18 AUDIO
    TITLE "13:cjc020_3115"
    INDEX 01 00:22:38
  TRACK 19 AUDIO
    TITLE "0:"
    INDEX 01 00:23:55
  TRACK 20 AUDIO
    TITLE "14:cjc020_3116"
    INDEX 01 00:23:57
  TRACK 21 AUDIO
    TITLE "0:"
    INDEX 01 00:27:49
  TRACK 22 AUDIO
    TITLE "13:cjc020_3117"
    INDEX 01 00:28:29
  TRACK 23 AUDIO
    TITLE "0:"
    INDEX 01 00:29:34
  TRACK 24 AUDIO
    TITLE "14:cjc020_3118"
    INDEX 01 00:29:36
  TRACK 25 AUDIO
    TITLE "0:"
    INDEX 01 00:31:29
  TRACK 26 AUDIO
    TITLE "13:cjc020_3119"
    INDEX 01 00:32:05
  TRACK 27 AUDIO
    TITLE "0:"
    INDEX 01 00:33:24
  TRACK 28 AUDIO
    TITLE "14:cjc020_3120"
    INDEX 01 00:33:26
  TRACK 29 AUDIO
    TITLE "0:"
    INDEX 01 00:34:51
  TRACK 30 AUDIO
    TITLE "13:cjc020_3121"
    INDEX 01 00:35:29
  TRACK 31 AUDIO
    TITLE "0:"
    INDEX 01 00:36:38
  TRACK 32 AUDIO
    TITLE "14:cjc020_3122"
    INDEX 01 00:36:44
  TRACK 33 AUDIO
    TITLE "0:"
    INDEX 01 00:39:19
  TRACK 34 AUDIO
    TITLE "13:cjc020_3123"
    INDEX 01 00:39:74
  TRACK 35 AUDIO
    TITLE "0:"
    INDEX 01 00:41:18
  TRACK 36 AUDIO
    TITLE "14:cjc020_3124"
    INDEX 01 00:41:24
  TRACK 37 AUDIO
    TITLE "0:"
    INDEX 01 00:44:69
  TRACK 38 AUDIO
    TITLE "13:cjc020_3125"
    INDEX 01 00:45:47
  TRACK 39 AUDIO
    TITLE "0:"
    INDEX 01 00:46:72
  TRACK 40 AUDIO
    TITLE "14:cjc020_3126"
    INDEX 01 00:47:01
  TRACK 41 AUDIO
    TITLE "0:"
    INDEX 01 00:51:26
  TRACK 42 AUDIO
    TITLE "13:cjc020_3127"
    INDEX 01 00:52:04
  TRACK 43 AUDIO
    TITLE "0:"
    INDEX 01 00:53:27
  TRACK 44 AUDIO
    TITLE "14:cjc020_3128"
    INDEX 01 00:53:29
  TRACK 45 AUDIO
    TITLE "0:"
    INDEX 01 00:55:42
  TRACK 46 AUDIO
    TITLE "13:cjc020_3129"
    INDEX 01 00:56:24
  TRACK 47 AUDIO
    TITLE "0:"
    INDEX 01 00:57:29
  TRACK 48 AUDIO
    TITLE "14:cjc020_3130"
    INDEX 01 00:57:33
  TRACK 49 AUDIO
    TITLE "0:"
    INDEX 01 00:59:57
  TRACK 50 AUDIO
    TITLE "13:cjc020_3131"
    INDEX 01 01:00:33
  TRACK 51 AUDIO
    TITLE "0:"
    INDEX 01 01:01:46
  TRACK 52 AUDIO
    TITLE "14:cjc020_3132"
    INDEX 01 01:01:48
  TRACK 53 AUDIO
    TITLE "0:"
    INDEX 01 01:04:19
  TRACK 54 AUDIO
    TITLE "13:cjc020_3133"
    INDEX 01 01:04:74
  TRACK 55 AUDIO
    TITLE "0:"
    INDEX 01 01:05:73
  TRACK 56 AUDIO
    TITLE "14:cjc020_3134"
    INDEX 01 01:06:02
  TRACK 57 AUDIO
    TITLE "0:"
    INDEX 01 01:08:54
  TRACK 58 AUDIO
    TITLE "13:cjc020_3135"
    INDEX 01 01:09:36
  TRACK 59 AUDIO
    TITLE "0:"
    INDEX 01 01:10:39
  TRACK 60 AUDIO
    TITLE "14:cjc020_3136"
    INDEX 01 01:10:41
  TRACK 61 AUDIO
    TITLE "0:"
    INDEX 01 01:14:12
  TRACK 62 AUDIO
    TITLE "13:cjc020_3137"
    INDEX 01 01:14:68
  TRACK 63 AUDIO
    TITLE "0:"
    INDEX 01 01:16:11
  TRACK 64 AUDIO
    TITLE "14:cjc020_3138"
    INDEX 01 01:16:14
  TRACK 65 AUDIO
    TITLE "0:"
    INDEX 01 01:18:27
